<svg xmlns="http://www.w3.org/2000/svg" width="816" height="203" viewBox="0 0 816 203" fill="none"><path d="M696.86 132.336C691.86 138.476 687.56 144.946 682.12 150.246C669.39 162.636 653.83 167.456 636.18 164.826C632.562 164.172 629.055 163.01 625.76 161.376C621.24 159.286 621.35 159.076 620.19 164.136C617.7 175.046 615.13 185.946 612.76 196.896C612.14 199.756 610.96 200.986 607.85 200.896C597.85 200.726 587.79 200.896 577.76 200.816C572.36 200.816 571.2 199.257 572.4 194.046C580.447 158.906 588.5 123.77 596.56 88.6365C597.142 86.5084 597.345 84.2948 597.16 82.0965C596.16 83.5165 595.07 84.9065 594.16 86.3665C574.9 116.306 555.654 146.25 536.42 176.196C530.35 185.686 523.14 193.866 512.5 198.416C500.76 203.416 488.64 203.736 476.28 201.286C473.42 200.716 472.77 199.466 473.5 196.666C475.13 190.406 476.55 184.076 477.84 177.736C478.36 175.176 479.54 174.126 482.14 174.386C483.7 174.536 485.3 174.386 486.88 174.386C495.73 174.796 501.53 170.326 505.26 162.816C505.814 161.39 505.936 159.832 505.61 158.336C500.424 128.683 495.18 99.0398 489.88 69.4065C488.78 63.2365 489.88 61.9165 496.24 61.9065C506.8 61.9065 517.36 62.0365 527.91 61.8365C531.31 61.7665 532.33 62.8365 532.62 66.1965C533.85 80.3065 535.43 94.3765 537.77 108.866C538.77 107.376 539.85 105.926 540.77 104.376C548.26 91.4965 555.77 78.6365 563.1 65.6565C564.68 62.8565 566.45 61.8065 569.7 61.8265C591.17 61.9765 612.64 61.9165 634.11 61.8865C636.44 61.8865 639.2 61.6165 639.96 64.2365C640.96 67.8165 642.57 66.2965 644.47 65.3565C655.574 59.7379 668.381 58.4889 680.36 61.8565C693.77 65.4865 701.37 74.5565 703.7 88.0865C704.02 89.9165 704.39 91.7365 704.89 94.3665C705.89 92.9565 706.4 92.2865 706.89 91.5765C719.07 72.4065 736.99 62.9665 759.28 60.6465C767.331 59.8322 775.457 60.1994 783.4 61.7365C803.4 65.4965 819.03 79.9065 815.24 107.026C810.87 138.246 790.99 158.576 759.83 164.346C750.126 166.208 740.155 166.208 730.45 164.346C711.07 160.556 701.32 151.036 696.86 132.336ZM774.75 103.656C775.06 94.9865 772.63 90.3565 767.22 89.2465C760.58 87.8865 753.9 88.4565 749.12 93.6865C739.99 103.686 737.01 115.856 738.3 129.076C738.74 133.606 742 135.946 746.42 136.766C755.15 138.396 762.86 135.106 767.55 127.426C772.24 119.746 774 111.296 774.75 103.656ZM663.23 100.206C663.37 94.2765 660.86 89.9065 655.92 89.0865C651.048 88.1309 645.999 88.7363 641.49 90.8165C639.876 91.4929 638.454 92.5582 637.352 93.9174C636.249 95.2766 635.5 96.8875 635.17 98.6065C633.12 108.186 630.81 117.716 628.68 127.286C627.45 132.806 629.19 135.396 634.75 136.596C644.14 138.596 651.3 135.536 656.05 127.056C660.59 118.956 662.44 110.066 663.23 100.206Z" fill="black"></path><path d="M306.521 135.026C307.921 129.286 309.361 123.566 310.691 117.816C314.691 100.596 318.691 83.3764 322.441 66.1064C323.131 62.9564 324.311 61.8064 327.631 61.8864C336.781 62.1164 345.931 62.0364 355.091 61.8864C358.701 61.8864 361.431 62.5064 361.341 66.8864C361.341 69.5564 362.741 68.6664 363.971 67.8864C371.643 63.1433 380.443 60.5335 389.461 60.3264C395.411 60.2708 401.348 60.8847 407.161 62.1564C411.871 63.1929 415.98 66.0509 418.591 70.1064C419.891 72.0464 420.941 72.1664 422.751 70.7664C431.141 64.2288 441.436 60.6087 452.071 60.4564C458.371 60.2305 464.673 60.8664 470.801 62.3464C480.801 64.9164 486.941 72.8264 487.101 83.1564C487.155 90.138 486.434 97.104 484.951 103.926C481.041 122.426 476.471 140.776 472.461 159.246C471.651 162.966 470.161 163.986 466.511 163.896C456.661 163.656 446.801 163.896 436.941 163.786C432.071 163.786 430.681 161.966 431.761 157.206C435.967 138.773 440.194 120.35 444.441 101.936C444.521 101.596 444.671 101.266 444.751 100.936C447.091 90.4464 444.681 87.7464 434.001 88.9364C426.471 89.7664 422.321 93.4664 420.651 100.766C416.201 120.216 411.651 139.636 407.351 159.116C406.591 162.586 405.481 164.116 401.561 163.956C391.711 163.616 381.851 163.876 371.991 163.826C366.781 163.826 365.571 162.236 366.741 157.046C371.087 137.753 375.461 118.47 379.861 99.1964C380.218 97.6662 380.432 96.1062 380.501 94.5364C380.651 91.1664 378.961 88.9664 375.571 89.0564C371.571 89.1664 367.431 89.2864 363.711 90.4964C359.471 91.8764 356.711 94.8664 355.711 99.8964C351.551 119.586 346.891 139.176 342.241 158.756C340.771 164.976 341.661 163.756 335.791 163.816C314.491 163.886 293.201 163.816 271.901 163.816C266.121 163.816 266.161 163.816 265.401 157.816C264.771 152.816 263.911 147.766 263.401 142.716C263.131 140.276 262.071 139.466 259.671 139.486C245.941 139.556 232.211 139.426 218.481 139.646C216.991 139.646 215.001 141.136 214.131 142.496C210.331 148.39 206.731 154.406 203.331 160.546C202.844 161.647 202.02 162.565 200.977 163.167C199.935 163.769 198.728 164.025 197.531 163.896C186.261 163.736 175.001 163.816 163.731 163.896C161.731 163.896 159.461 164.106 159.081 161.666C158.815 159.9 159.165 158.096 160.071 156.556C180.171 126.103 200.341 95.6997 220.581 65.3464C227.951 54.2464 235.391 43.1764 242.661 32.0064C243.272 30.8625 244.202 29.9208 245.338 29.2959C246.474 28.671 247.768 28.3897 249.061 28.4864C259.061 28.6731 269.094 28.6731 279.161 28.4864C282.481 28.4264 283.691 29.5564 284.351 32.7864C290.917 65.0197 297.584 97.2364 304.351 129.436C304.741 131.306 305.261 133.136 305.721 134.996L306.521 135.026ZM254.001 77.2264L253.001 77.1064C246.931 87.2664 240.831 97.4064 234.801 107.586C233.541 109.716 234.731 110.276 236.801 110.256C242.801 110.256 248.721 110.126 254.671 110.256C257.671 110.336 258.791 109.556 258.281 106.396C257.181 99.5164 256.371 92.5864 255.401 85.6764C254.941 82.8764 254.451 80.0564 254.001 77.2264Z" fill="black"></path><path d="M159.52 196.116H0.27L0 195.556C1.14 194.996 2.27 194.396 3.43 193.876C17.37 187.626 30.34 179.966 39.43 167.296C44.43 160.296 48.78 152.896 53.37 145.646C58.71 137.196 63.99 128.726 69.29 120.256C77.5567 107.016 85.8167 93.7829 94.07 80.5563C98.55 73.4263 103.13 66.3662 107.63 59.2563C118.963 41.3496 130.297 23.4296 141.63 5.49625C142.19 4.61625 142.76 3.72625 143.34 2.84625C145.84 -0.943749 146.07 -0.953749 148.44 2.84625C156.86 16.4396 165.283 30.0096 173.71 43.5563C177.22 49.2063 180.71 54.8563 184.4 60.3963C185.91 62.6863 186.27 64.5163 184.69 67.0762C175.09 82.5662 165.69 98.1762 156.19 113.726C148.19 126.886 140.03 139.986 132.02 153.156C127.02 161.336 127.69 169.476 132.54 177.466C138.72 187.656 147.76 193.646 159.52 196.116Z" fill="black"></path><path d="M243.01 196.266C228.93 196.266 214.85 196.266 200.76 196.266C199.713 196.092 198.701 195.755 197.76 195.266C198.528 194.623 199.383 194.091 200.3 193.686C208.3 191.386 215.71 188.046 222.25 182.686C230.68 175.746 234.81 167.336 233.08 156.386C232.947 155.877 232.896 155.351 232.93 154.826C233.18 153.406 233.12 151.146 233.93 150.746C236.15 149.666 236.58 151.936 237.48 153.426C243.368 163.235 251.239 171.705 260.59 178.296C263.299 180.232 266.132 181.989 269.07 183.556C274.95 186.636 280.97 189.436 286.86 192.496C287.86 193.016 288.5 194.226 289.31 195.116C288.31 195.516 287.31 196.266 286.31 196.266C271.88 196.296 257.44 196.266 243.01 196.266Z" fill="black"></path></svg>